<?xml version="1.0" standalone="no"?>
<!DOCTYPE svg PUBLIC "-//W3C//DTD SVG 20010904//EN"
 "http://www.w3.org/TR/2001/REC-SVG-20010904/DTD/svg10.dtd">
<svg version="1.0" xmlns="http://www.w3.org/2000/svg"
 width="310.000000pt" height="310.000000pt" viewBox="0 0 310.000000 310.000000"
 preserveAspectRatio="xMidYMid meet">
<metadata>
Created by potrace 1.11, written by Peter Selinger 2001-2013
</metadata>
<g transform="translate(0.000000,310.000000) scale(0.100000,-0.100000)"
fill="#000000" stroke="none">
<path d="M1349 2996 c-2 -2 -56 -7 -120 -10 -63 -4 -126 -8 -140 -11 -13 -2
-51 -6 -84 -10 -33 -3 -80 -11 -103 -16 -75 -16 -326 -201 -473 -348 -125
-126 -152 -178 -159 -314 -3 -53 -3 -102 -2 -107 5 -15 52 -12 53 3 8 155 27
212 90 281 82 90 225 144 428 161 41 4 97 8 125 11 28 2 182 7 341 9 l290 5
-97 -49 c-139 -70 -200 -106 -314 -182 -115 -78 -251 -201 -278 -251 -17 -32
-18 -37 -2 -69 9 -19 59 -87 111 -153 116 -144 164 -214 194 -284 30 -71 31
-152 3 -215 -31 -69 -162 -202 -137 -140 12 34 19 99 18 188 -1 104 -30 203
-85 288 -31 49 -137 187 -165 215 -35 36 -103 142 -117 185 -30 88 -20 139 37
199 57 60 127 78 228 59 46 -8 56 -7 67 7 20 26 9 36 -53 48 -257 52 -439
-148 -355 -390 23 -67 73 -143 181 -273 101 -120 152 -197 180 -272 24 -64 32
-159 18 -213 -23 -89 -134 -178 -223 -178 -22 0 -75 11 -116 23 l-75 24 -125
-95 c-205 -156 -216 -171 -198 -272 30 -166 180 -348 370 -449 127 -68 182
-82 338 -86 172 -5 264 20 443 119 l98 54 107 -50 c59 -28 134 -63 167 -78
185 -86 260 -121 264 -126 3 -3 -19 -26 -48 -52 -52 -46 -53 -47 -33 -65 16
-15 22 -16 33 -5 8 8 86 72 174 143 278 224 447 367 528 445 l79 75 5 135 c7
208 7 1344 -1 1530 -12 300 -21 336 -95 410 -46 46 -68 60 -126 78 -38 12 -88
24 -110 27 -22 2 -49 7 -61 9 -11 2 -58 7 -105 11 -46 4 -100 9 -119 11 -49 6
-845 16 -851 10z m723 -356 c138 -20 228 -65 278 -139 29 -42 57 -144 62 -220
3 -40 0 -46 -27 -61 -16 -9 -120 -70 -230 -135 -110 -65 -254 -149 -320 -188
-66 -39 -155 -92 -198 -119 -44 -27 -81 -48 -83 -46 -2 3 0 18 5 35 5 17 8 58
6 91 -4 98 -68 214 -200 357 -60 65 -98 129 -91 153 25 79 234 201 441 258 86
23 244 30 357 14z m350 -569 c-3 -22 -23 -36 -139 -96 -139 -71 -331 -184
-616 -361 -225 -140 -290 -177 -284 -161 3 8 32 52 65 99 56 78 68 89 173 153
63 39 123 75 134 81 11 6 49 29 85 51 143 88 365 200 550 280 29 12 39 -2 32
-46z m13 -351 c9 -275 10 -615 2 -800 -4 -80 -7 -188 -8 -241 0 -53 -4 -101
-7 -106 -4 -6 -85 26 -197 78 -525 244 -921 393 -1216 459 l-97 21 212 108
c116 59 299 161 406 226 415 251 500 300 655 375 214 104 229 110 236 102 4
-4 10 -104 14 -222z m-1872 -855 c219 -57 570 -186 807 -298 l114 -54 -69 -40
c-229 -132 -431 -130 -693 8 -192 102 -346 243 -376 346 -5 15 -1 28 13 42 28
28 85 27 204 -4z"/>
</g>
</svg>
