<?xml version="1.0" standalone="no"?>
<!DOCTYPE svg PUBLIC "-//W3C//DTD SVG 20010904//EN"
 "http://www.w3.org/TR/2001/REC-SVG-20010904/DTD/svg10.dtd">
<svg version="1.0" xmlns="http://www.w3.org/2000/svg"
 width="310.000000pt" height="310.000000pt" viewBox="0 0 310.000000 310.000000"
 preserveAspectRatio="xMidYMid meet">
<metadata>
Created by potrace 1.11, written by Peter Selinger 2001-2013
</metadata>
<g transform="translate(0.000000,310.000000) scale(0.100000,-0.100000)"
fill="#000000" stroke="none">
<path d="M645 1600 c-137 -21 -211 -141 -261 -420 -10 -59 -12 -391 -3 -460 5
-36 11 -81 13 -100 14 -101 80 -245 124 -269 90 -48 169 13 414 319 86 108
115 99 179 -53 85 -201 143 -270 228 -269 55 1 99 24 206 107 119 93 171 128
220 147 141 55 234 24 415 -142 102 -94 161 -134 225 -153 133 -39 244 12 420
192 86 87 95 101 71 101 -17 0 -127 -36 -226 -73 -84 -32 -166 -32 -230 1 -59
29 -81 50 -165 152 -89 108 -120 138 -170 161 -71 33 -153 20 -238 -37 -23
-16 -44 -31 -47 -34 -3 -3 -43 -36 -90 -74 -182 -148 -319 -165 -379 -48 -11
21 -34 90 -52 152 -48 165 -90 203 -181 162 -59 -27 -102 -62 -258 -216 -158
-155 -209 -193 -239 -177 -11 6 -22 19 -25 28 -11 35 -23 148 -20 178 13 98
28 165 60 271 61 201 84 302 88 371 3 66 -14 168 -30 182 -5 4 -27 4 -49 1z"/>
</g>
</svg>
